<?xml version="1.0" standalone="no"?>
<!DOCTYPE svg PUBLIC "-//W3C//DTD SVG 20010904//EN"
 "http://www.w3.org/TR/2001/REC-SVG-20010904/DTD/svg10.dtd">
<svg version="1.0" xmlns="http://www.w3.org/2000/svg"
 width="150.000000pt" height="150.000000pt" viewBox="0 0 150.000000 150.000000"
 preserveAspectRatio="xMidYMid meet">

<g transform="translate(0.000000,150.000000) scale(0.100000,-0.100000)"
fill="#000000" stroke="none">
<path d="M0 1350 c0 -25 5 -40 13 -40 6 0 113 -32 237 -71 124 -39 281 -88
350 -108 95 -30 125 -42 124 -55 -2 -23 4 -20 21 13 14 28 14 30 -8 37 -12 5
-25 7 -29 6 -6 -1 -151 51 -208 75 -8 3 -18 5 -22 5 -5 -1 -8 10 -8 24 0 16 5
24 13 21 6 -2 11 -10 9 -16 -1 -8 4 -8 18 1 18 12 18 13 2 31 -9 10 -12 18 -7
17 24 -5 46 1 40 11 -4 6 0 9 10 7 11 -2 19 4 20 15 2 9 -1 17 -6 17 -5 0 -9
-5 -9 -12 0 -6 -3 -9 -6 -5 -3 3 -20 -3 -36 -13 -17 -10 -36 -16 -42 -14 -8 3
-13 -9 -14 -33 -2 -20 -4 -38 -5 -39 -1 -1 -56 19 -122 43 -66 25 -168 62
-227 84 l-108 38 0 -39z"/>
<path d="M1315 1322 c-16 -10 -32 -20 -33 -25 -2 -4 -8 -5 -13 -1 -5 3 -9 1
-9 -4 0 -10 -102 -8 -120 3 -15 9 -91 -5 -85 -15 3 -5 -4 -12 -16 -15 -11 -4
-36 -23 -56 -43 -26 -28 -33 -44 -30 -64 2 -16 0 -28 -5 -28 -4 0 -8 5 -8 11
0 8 -4 8 -14 0 -11 -9 -15 -9 -19 1 -2 7 -8 9 -13 5 -5 -4 -4 -11 1 -15 16
-11 16 -32 0 -32 -8 0 -15 -5 -15 -12 0 -6 3 -8 7 -5 3 4 11 2 18 -3 8 -7 16
-2 25 15 15 29 32 33 28 8 -3 -20 -48 -48 -57 -35 -3 4 -13 7 -21 7 -8 -1 -21
3 -27 8 -7 5 -13 6 -13 1 0 -5 -4 -4 -8 2 -9 14 -52 0 -52 -16 0 -6 5 -8 11
-4 7 4 9 -2 7 -17 -1 -13 -9 -25 -15 -25 -7 -1 -18 -2 -23 -3 -15 -2 -49 -62
-44 -76 3 -7 -4 -15 -15 -18 -25 -6 -28 -29 -3 -26 9 1 25 -1 35 -6 11 -4 30
-2 45 5 27 12 27 12 7 -8 -11 -11 -24 -17 -29 -14 -5 3 -6 0 -2 -7 5 -7 14
-10 22 -7 8 3 14 1 14 -4 0 -12 -36 -12 -65 -1 -23 9 -69 -15 -59 -31 3 -5 25
-7 48 -4 l41 5 -37 -10 -38 -11 23 -18 22 -19 -25 -10 c-14 -5 -19 -10 -12
-10 7 -1 12 -14 12 -33 l-1 -33 -14 40 c-8 22 -15 41 -15 42 0 8 -70 37 -95
40 -25 2 -32 -2 -44 -27 -11 -26 -15 -29 -28 -18 -12 10 -17 9 -25 -6 -7 -13
-20 -17 -52 -15 -23 2 -47 -1 -54 -5 -7 -4 -12 -2 -12 3 0 6 -9 11 -20 11 -11
0 -20 5 -20 10 0 6 -35 10 -82 11 -65 1 -76 3 -53 10 16 4 39 6 52 3 14 -4 23
-2 23 5 0 7 -19 10 -47 10 -27 -1 -55 0 -63 2 -9 2 -14 -2 -12 -9 1 -8 -3 -12
-10 -10 -7 3 -14 11 -16 19 -3 18 59 24 70 6 5 -8 8 -9 8 0 0 7 13 9 40 6 38
-5 40 -4 40 21 0 30 0 30 35 12 14 -8 22 -15 16 -17 -7 -3 -7 -9 -1 -19 8 -12
11 -11 16 8 7 25 34 31 34 7 0 -12 12 -15 58 -13 l57 2 -52 3 c-40 3 -51 7
-46 19 3 7 16 14 30 14 13 0 22 4 19 8 -7 11 -178 13 -196 2 -11 -7 -11 -10
-2 -10 7 0 11 -4 8 -8 -2 -4 -23 -6 -45 -4 -23 2 -38 8 -35 13 3 5 -9 9 -27 9
l-32 0 19 -22 c14 -16 15 -20 3 -16 -8 3 -26 -1 -40 -9 -13 -8 -16 -12 -7 -9
12 3 16 -1 15 -15 -1 -20 -6 -22 -31 -13 -9 3 -13 10 -10 15 3 5 -1 9 -8 9 -9
0 -9 3 2 10 13 8 12 10 -3 10 -10 0 -16 4 -12 9 3 5 0 13 -6 17 -8 5 -10 -1
-7 -19 3 -14 1 -32 -4 -39 -7 -10 -8 -9 -4 4 3 10 1 20 -4 23 -15 9 -12 -35 2
-48 9 -8 50 -11 128 -10 135 3 180 -2 180 -22 0 -15 -12 -19 -197 -61 l-123
-27 0 -69 c0 -61 2 -68 20 -68 11 0 20 -4 20 -10 0 -5 -9 -10 -20 -10 -22 0
-27 -15 -7 -23 10 -4 10 -6 0 -6 -8 -1 -13 -16 -13 -42 0 -24 4 -38 10 -34 6
3 10 2 10 -4 0 -5 -4 -13 -10 -16 -5 -3 -10 -21 -10 -40 l0 -33 98 49 c53 27
120 56 147 65 28 9 57 23 66 30 21 19 46 17 97 -6 23 -10 42 -17 42 -15 0 2
15 -1 32 -6 28 -8 43 -3 113 33 71 37 158 104 125 96 -7 -2 -15 3 -18 11 -3 8
0 11 7 7 6 -4 11 -3 11 3 0 5 3 16 6 25 4 11 0 16 -12 16 -18 1 -18 1 -1 11 9
6 15 14 12 20 -4 5 -1 9 4 9 6 0 11 -4 11 -10 0 -5 7 -7 15 -4 8 4 12 10 9 15
-3 5 5 10 18 10 18 1 19 2 5 6 -10 3 -24 0 -32 -7 -17 -14 -22 -5 -31 50 -5
31 -4 41 4 36 7 -4 12 -22 13 -39 l1 -32 12 30 c17 40 30 105 16 85 -8 -13
-10 -13 -10 1 0 9 7 19 15 23 8 3 15 12 15 20 0 8 11 38 25 68 14 29 25 49 25
44 0 -5 6 -3 14 3 10 8 16 9 21 1 3 -5 12 -10 18 -10 7 0 6 4 -3 10 -10 6 -11
10 -2 10 6 0 12 8 13 18 0 10 3 12 6 5 3 -9 10 -10 21 -4 20 11 58 -12 47 -28
-3 -6 2 -14 12 -17 10 -3 26 -10 36 -15 13 -7 19 -5 24 8 6 15 7 15 14 -3 7
-17 8 -17 8 -1 1 14 5 16 20 7 29 -15 85 -12 132 7 39 15 41 18 35 51 -6 40
-5 40 23 -13 19 -36 21 -37 21 -14 0 14 -9 34 -20 44 -35 32 -6 40 34 10 36
-27 141 -59 158 -49 5 3 3 13 -4 22 -8 10 -8 13 -1 9 6 -4 14 -1 17 5 3 7 5
-2 3 -19 -2 -18 0 -33 5 -33 4 0 8 30 8 66 0 41 -4 63 -10 59 -5 -3 -10 3 -10
14 0 12 5 21 10 21 20 0 9 21 -20 39 -16 10 -28 20 -25 23 8 8 -26 102 -43
115 -8 7 -20 22 -26 34 -14 29 -25 31 -61 11z m15 -52 c0 -11 -2 -20 -4 -20
-2 0 -6 9 -9 20 -3 11 -1 20 4 20 5 0 9 -9 9 -20z m-137 -154 c7 -18 -79 -39
-103 -26 -12 8 -12 9 5 10 11 0 29 7 39 15 25 19 52 19 59 1z m152 4 c-3 -5
-12 -10 -18 -10 -7 0 -6 4 3 10 19 12 23 12 15 0z m-415 -9 c0 -6 -4 -12 -8
-15 -5 -3 -9 1 -9 9 0 8 4 15 9 15 4 0 8 -4 8 -9z m326 -63 c-1 -15 -6 -31 -9
-35 -4 -3 -7 -17 -7 -30 0 -22 -2 -23 -15 -9 -8 8 -15 24 -15 35 0 15 -5 19
-16 14 -12 -4 -15 -2 -12 8 3 8 11 15 19 15 8 1 20 2 28 3 7 0 11 7 8 14 -3 8
1 14 9 14 9 0 12 -10 10 -29z m-126 -3 c0 -8 8 -18 17 -24 15 -8 14 -10 -10
-16 -35 -9 -36 -8 -30 32 5 31 23 37 23 8z m-135 5 c-3 -5 -1 -10 4 -10 6 0
11 -5 11 -11 0 -8 -5 -8 -15 1 -13 11 -12 30 1 30 3 0 2 -4 -1 -10z m75 -34
c0 -8 -5 -18 -10 -21 -6 -4 -7 -12 -3 -18 4 -8 1 -8 -9 1 -9 7 -18 22 -21 32
-4 16 0 20 19 20 14 0 24 -6 24 -14z m-286 -26 c-21 -8 -37 -3 -29 10 3 4 15
6 27 2 21 -5 21 -6 2 -12z m150 -9 c-4 -3 -9 0 -11 7 -3 6 -10 9 -15 6 -7 -4
-8 -2 -4 5 6 9 11 9 22 0 8 -6 12 -15 8 -18z m-193 -38 c13 -16 12 -17 -3 -4
-10 7 -18 15 -18 17 0 8 8 3 21 -13z m456 11 c-3 -3 -12 -4 -19 -1 -8 3 -5 6
6 6 11 1 17 -2 13 -5z m-387 -8 c0 -2 -7 -9 -15 -16 -13 -11 -14 -10 -9 4 5
14 24 23 24 12z m-660 -106 c0 -5 -2 -10 -4 -10 -3 0 -8 5 -11 10 -3 6 -1 10
4 10 6 0 11 -4 11 -10z m147 -172 c-3 -8 -6 -5 -6 6 -1 11 2 17 5 13 3 -3 4
-12 1 -19z m-67 -188 c0 -5 -18 -18 -40 -29 -51 -24 -53 -8 -2 18 44 24 42 23
42 11z"/>
<path d="M430 1260 c-9 -6 -10 -10 -3 -10 6 0 15 5 18 10 8 12 4 12 -15 0z"/>
<path d="M20 1125 c0 -14 -6 -25 -12 -26 -7 0 -4 -4 7 -9 15 -6 16 -9 4 -9
-23 -1 -24 -70 -1 -88 9 -8 11 -11 3 -7 -9 4 -12 2 -9 -7 3 -9 16 -13 32 -11
18 2 25 -1 21 -7 -3 -7 3 -11 15 -11 14 0 19 -4 14 -12 -6 -10 -4 -10 8 0 16
13 48 7 48 -9 0 -5 5 -9 11 -9 5 0 8 4 5 9 -4 5 2 8 11 6 10 -2 47 -6 83 -11
51 -6 60 -9 40 -15 -18 -5 -10 -7 31 -8 30 -1 61 -7 69 -13 12 -11 12 -10 1 5
-8 9 -27 17 -45 18 -30 0 -30 1 -7 10 13 5 50 8 82 6 57 -4 82 7 37 16 -17 3
-14 5 10 6 22 1 32 -3 32 -14 0 -8 8 -15 18 -14 10 0 12 3 5 6 -22 8 -14 21
17 25 17 3 30 1 30 -4 0 -4 -7 -8 -15 -8 -18 0 -19 -9 -4 -30 9 -13 10 -12 5
2 -3 12 -1 15 10 11 8 -3 14 1 14 8 0 12 2 12 9 0 6 -10 10 -10 16 -1 5 8 10
8 14 2 3 -6 13 0 23 12 16 22 16 22 -30 25 -25 1 -49 4 -53 7 -4 2 -10 0 -14
-6 -8 -12 -45 10 -45 27 0 7 -4 13 -9 13 -5 0 -14 17 -20 38 -7 24 -9 28 -7 9
3 -21 -1 -28 -18 -32 -38 -9 -116 -12 -111 -5 2 4 -22 6 -55 6 -32 -1 -57 0
-55 4 2 3 -11 4 -30 2 -19 -2 -36 1 -40 9 -5 8 -4 10 3 5 7 -4 12 -2 12 4 0 6
-14 8 -35 6 -23 -3 -34 0 -32 7 1 7 -5 11 -15 9 -17 -3 -58 42 -58 64 0 8 -4
14 -10 14 -5 0 -10 -11 -10 -25z m43 -60 c-7 -21 -13 -19 -13 6 0 11 4 18 10
14 5 -3 7 -12 3 -20z m31 -30 c-7 -17 -54 -21 -54 -4 0 6 9 9 20 6 11 -3 23
-1 26 4 9 14 14 10 8 -6z m66 -15 c0 -5 -8 -10 -17 -10 -15 0 -16 -2 -3 -10
10 -6 20 -4 30 5 14 12 16 12 16 -6 0 -22 -33 -35 -66 -26 -10 3 -20 1 -22 -5
-2 -5 -17 -2 -33 6 -17 9 -28 16 -25 17 3 0 13 2 23 5 9 2 25 6 34 7 9 2 19 9
21 15 5 15 42 16 42 2z m164 -28 c2 -4 -6 -9 -19 -10 -13 -1 -27 3 -30 8 -3 6
5 10 19 10 14 0 27 -4 30 -8z m83 -28 c-3 -3 -12 -4 -19 -1 -8 3 -5 6 6 6 11
1 17 -2 13 -5z m40 0 c-3 -3 -12 -4 -19 -1 -8 3 -5 6 6 6 11 1 17 -2 13 -5z
m-130 -20 c-7 -8 -87 -7 -95 0 -3 3 19 6 48 6 29 0 51 -3 47 -6z m40 0 c-3 -3
-12 -4 -19 -1 -8 3 -5 6 6 6 11 1 17 -2 13 -5z"/>
<path d="M501 1114 c0 -11 3 -14 6 -6 3 7 2 16 -1 19 -3 4 -6 -2 -5 -13z"/>
<path d="M815 1120 c-3 -6 1 -7 9 -4 18 7 21 14 7 14 -6 0 -13 -4 -16 -10z"/>
<path d="M870 1120 c0 -5 5 -10 10 -10 6 0 10 5 10 10 0 6 -4 10 -10 10 -5 0
-10 -4 -10 -10z"/>
<path d="M195 1050 c-3 -5 -2 -10 4 -10 5 0 13 5 16 10 3 6 2 10 -4 10 -5 0
-13 -4 -16 -10z"/>
<path d="M676 1005 c-16 -12 -17 -15 -4 -15 9 0 18 7 22 15 7 18 6 18 -18 0z"/>
<path d="M580 1000 c0 -5 5 -10 10 -10 6 0 10 5 10 10 0 6 -4 10 -10 10 -5 0
-10 -4 -10 -10z"/>
<path d="M625 1000 c3 -5 8 -10 11 -10 2 0 4 5 4 10 0 6 -5 10 -11 10 -5 0 -7
-4 -4 -10z"/>
<path d="M1438 923 c6 -2 18 -2 25 0 6 3 1 5 -13 5 -14 0 -19 -2 -12 -5z"/>
<path d="M212 911 c-9 -5 -2 -8 20 -9 23 -1 28 2 18 8 -18 12 -22 12 -38 1z"/>
<path d="M138 903 c12 -2 30 -2 40 0 9 3 -1 5 -23 4 -22 0 -30 -2 -17 -4z"/>
<path d="M608 903 c7 -3 16 -2 19 1 4 3 -2 6 -13 5 -11 0 -14 -3 -6 -6z"/>
<path d="M4 865 c-4 -9 -4 -19 0 -22 3 -4 6 1 6 9 0 19 33 14 51 -8 16 -20 29
-17 29 5 0 15 -7 19 -29 19 -15 -1 -33 2 -40 6 -6 4 -14 0 -17 -9z m76 -15 c0
-5 -2 -10 -4 -10 -3 0 -8 5 -11 10 -3 6 -1 10 4 10 6 0 11 -4 11 -10z"/>
<path d="M1403 840 c0 -25 2 -35 4 -22 2 12 2 32 0 45 -2 12 -4 2 -4 -23z"/>
<path d="M539 861 c-3 -7 -33 -14 -69 -18 -99 -8 -87 -15 18 -10 69 3 98 8
110 20 15 16 14 17 -11 17 -15 0 -27 -6 -27 -12 0 -10 -3 -9 -9 1 -6 9 -10 10
-12 2z"/>
<path d="M1000 843 c-19 -3 -28 -13 -36 -38 -6 -19 -7 -35 -3 -35 5 0 9 5 9
10 0 6 11 10 25 10 15 0 25 6 25 14 0 7 10 21 23 29 21 15 21 16 2 15 -11 -1
-31 -3 -45 -5z"/>
<path d="M871 821 c-9 -6 -10 -11 -2 -15 6 -4 11 -2 11 4 0 13 42 10 51 -3 3
-5 9 -2 12 7 5 13 -1 16 -26 16 -18 0 -38 -4 -46 -9z"/>
<path d="M1421 753 c-15 -78 -15 -80 17 -85 19 -3 29 0 29 9 0 7 -6 13 -14 13
-25 0 -13 21 20 35 26 12 28 14 10 15 -12 0 -25 -5 -29 -11 -14 -24 -26 8 -16
45 6 20 7 36 3 36 -5 0 -13 -26 -20 -57z m19 -37 c0 -3 -4 -8 -10 -11 -5 -3
-10 -1 -10 4 0 6 5 11 10 11 6 0 10 -2 10 -4z"/>
<path d="M1260 792 c0 -6 14 -22 30 -35 25 -21 49 -63 52 -87 0 -3 4 -14 8
-25 18 -50 20 -75 6 -75 -13 0 -31 -28 -23 -36 2 -2 22 5 45 16 22 11 60 21
84 21 l43 1 -38 8 c-49 9 -63 24 -15 17 50 -8 57 5 11 19 l-38 12 40 2 c37 1
38 2 16 11 -14 5 -31 7 -38 4 -8 -2 -12 -1 -9 4 3 5 -3 11 -14 14 -15 4 -20
-1 -23 -27 -3 -17 -3 7 -2 54 2 47 1 77 -2 68 -5 -20 -18 -23 -28 -8 -14 22
-105 58 -105 42z"/>
<path d="M867 773 c-11 -11 -8 -23 6 -23 8 0 14 7 14 15 0 16 -9 19 -20 8z"/>
<path d="M1450 769 c0 -5 5 -7 10 -4 6 3 10 8 10 11 0 2 -4 4 -10 4 -5 0 -10
-5 -10 -11z"/>
<path d="M30 716 c0 -14 4 -27 8 -30 5 -3 6 8 4 25 -5 35 -12 38 -12 5z"/>
<path d="M875 730 c-3 -5 -1 -10 4 -10 6 0 11 5 11 10 0 6 -2 10 -4 10 -3 0
-8 -4 -11 -10z"/>
<path d="M115 709 c-4 -6 -5 -12 -2 -15 2 -3 7 2 10 11 7 17 1 20 -8 4z"/>
<path d="M855 699 c-19 -9 -19 -9 2 -5 16 3 24 -2 29 -17 4 -12 2 -23 -5 -25
-6 -2 -8 -8 -5 -14 4 -6 -1 -8 -14 -4 -24 8 -74 -3 -67 -14 3 -5 22 -6 42 -3
26 4 34 3 29 -5 -4 -7 -1 -12 7 -12 7 0 23 -10 35 -22 l21 -23 -40 0 c-27 -1
-46 -8 -61 -23 l-22 -22 26 0 c15 0 31 -7 36 -15 4 -9 18 -17 30 -20 13 -2 20
0 17 6 -4 5 -12 6 -18 2 -7 -4 -6 0 2 10 14 17 32 23 30 10 -1 -5 -1 -20 0
-34 1 -25 3 -26 35 -19 32 7 36 5 45 -21 7 -22 16 -29 35 -29 35 0 33 18 -1
23 -20 3 -16 4 14 6 23 0 45 6 49 13 5 8 0 9 -15 5 -15 -3 -24 1 -31 14 -6 10
-19 19 -29 19 -20 0 -35 25 -32 53 1 9 -3 17 -10 17 -25 0 -80 70 -87 112 -8
45 -16 52 -47 37z m104 -168 c7 -5 9 -11 4 -14 -5 -3 -15 -2 -23 3 -8 5 -22 4
-33 -2 -10 -5 -21 -7 -24 -4 -6 6 33 24 52 25 6 0 16 -3 24 -8z m14 -58 c-7
-2 -19 -2 -25 0 -7 3 -2 5 12 5 14 0 19 -2 13 -5z m74 -19 c-3 -3 -12 -4 -19
-1 -8 3 -5 6 6 6 11 1 17 -2 13 -5z"/>
<path d="M1126 701 c-12 -5 -15 -10 -9 -14 6 -4 16 0 23 8 14 17 13 17 -14 6z"/>
<path d="M1028 678 c-27 -6 -48 -14 -48 -19 0 -5 12 -4 26 1 14 6 38 10 54 10
16 0 32 5 35 10 7 12 -3 11 -67 -2z"/>
<path d="M1243 654 c-46 -27 -51 -38 -29 -67 13 -17 14 -17 18 1 3 10 13 19
22 19 22 0 21 -17 -1 -18 -14 0 -13 -2 4 -9 13 -5 32 -24 43 -42 l20 -33 0 88
c0 100 -5 105 -77 61z"/>
<path d="M1485 660 c-3 -5 -1 -10 4 -10 6 0 11 5 11 10 0 6 -2 10 -4 10 -3 0
-8 -4 -11 -10z"/>
<path d="M755 600 c-3 -5 -2 -10 4 -10 5 0 13 5 16 10 3 6 2 10 -4 10 -5 0
-13 -4 -16 -10z"/>
<path d="M1015 559 c0 -44 2 -49 23 -49 18 0 22 6 22 28 0 17 -9 37 -22 50
l-23 21 0 -50z"/>
<path d="M749 558 c-1 -2 -3 -13 -4 -25 -2 -16 4 -22 24 -26 25 -5 25 -5 6 10
-11 8 -19 21 -17 29 2 11 -5 21 -9 12z"/>
<path d="M1408 543 c6 -2 18 -2 25 0 6 3 1 5 -13 5 -14 0 -19 -2 -12 -5z"/>
<path d="M1260 508 l-35 -10 25 -14 25 -13 -25 -1 c-19 0 -21 -3 -11 -9 8 -5
20 -7 28 -4 7 3 20 0 28 -7 7 -6 24 -10 37 -8 19 4 14 9 -32 31 -48 23 -51 27
-24 24 23 -2 31 0 27 10 -3 7 -6 13 -7 12 0 0 -17 -5 -36 -11z"/>
<path d="M1135 490 c-3 -5 -1 -10 4 -10 6 0 11 5 11 10 0 6 -2 10 -4 10 -3 0
-8 -4 -11 -10z"/>
<path d="M1070 471 c0 -4 11 -6 25 -3 14 2 25 6 25 8 0 2 -11 4 -25 4 -14 0
-25 -4 -25 -9z"/>
<path d="M1368 448 c9 -9 15 -9 24 0 9 9 7 12 -12 12 -19 0 -21 -3 -12 -12z"/>
<path d="M1234 439 c-8 -14 23 -22 42 -11 14 8 13 10 -10 14 -15 3 -29 1 -32
-3z"/>
<path d="M935 430 c-4 -6 8 -10 29 -10 20 0 36 5 36 10 0 6 -13 10 -29 10 -17
0 -33 -4 -36 -10z"/>
<path d="M1400 429 c0 -5 5 -7 10 -4 6 3 10 8 10 11 0 2 -4 4 -10 4 -5 0 -10
-5 -10 -11z"/>
<path d="M1460 430 c0 -5 5 -10 10 -10 6 0 10 5 10 10 0 6 -4 10 -10 10 -5 0
-10 -4 -10 -10z"/>
<path d="M1108 413 c6 -2 18 -2 25 0 6 3 1 5 -13 5 -14 0 -19 -2 -12 -5z"/>
<path d="M1358 413 c7 -3 16 -2 19 1 4 3 -2 6 -13 5 -11 0 -14 -3 -6 -6z"/>
<path d="M1263 403 c9 -2 25 -2 35 0 9 3 1 5 -18 5 -19 0 -27 -2 -17 -5z"/>
<path d="M298 388 c8 -8 17 -8 34 0 22 10 21 11 -11 11 -27 1 -32 -2 -23 -11z"/>
<path d="M1183 394 c4 -7 -16 -9 -68 -6 -94 6 -226 -29 -138 -36 33 -3 42 -11
23 -22 -11 -7 -12 -10 -2 -10 7 0 10 -4 7 -10 -3 -5 -1 -10 4 -10 6 0 11 6 11
14 0 11 7 13 29 6 16 -4 32 -6 35 -2 3 3 6 1 6 -5 0 -6 12 -8 28 -5 26 4 26 4
7 -11 -12 -10 -24 -12 -29 -6 -6 5 -24 9 -40 9 -26 -1 -28 -2 -13 -11 9 -6 15
-14 12 -20 -3 -5 0 -6 8 -3 8 3 18 1 22 -5 4 -8 12 -8 27 0 14 8 23 8 31 0 13
-13 41 -15 33 -2 -3 5 2 12 12 16 15 7 14 9 -7 14 -34 9 -38 29 -7 36 14 3 37
7 51 10 33 7 32 25 -1 25 -15 0 -23 -4 -19 -11 5 -7 -2 -9 -19 -7 -36 4 -37
22 -1 28 27 5 27 6 10 20 -11 8 -16 10 -12 4z m-83 -29 c0 -13 -52 -25 -68
-16 -13 8 -10 10 16 9 18 -1 35 2 39 5 8 8 13 9 13 2z m28 -19 c-7 -8 -16 -12
-21 -9 -11 7 2 23 19 23 12 0 12 -2 2 -14z"/>
<path d="M525 351 c-3 -5 -2 -12 3 -15 5 -3 9 1 9 9 0 17 -3 19 -12 6z"/>
<path d="M243 343 c9 -2 25 -2 35 0 9 3 1 5 -18 5 -19 0 -27 -2 -17 -5z"/>
<path d="M85 310 c-3 -5 -1 -10 4 -10 6 0 11 5 11 10 0 6 -2 10 -4 10 -3 0 -8
-4 -11 -10z"/>
<path d="M193 298 c9 -4 26 -4 39 1 20 8 18 9 -15 9 -26 -1 -34 -4 -24 -10z"/>
<path d="M94 284 c-17 -14 -17 -15 -1 -10 10 3 25 6 33 6 8 0 14 5 14 10 0 15
-24 12 -46 -6z"/>
<path d="M120 250 c-9 -6 -10 -10 -3 -10 6 0 15 5 18 10 8 12 4 12 -15 0z"/>
<path d="M1057 244 c-11 -12 40 -44 67 -42 14 1 26 4 26 6 0 4 -53 22 -64 21
-5 0 -12 4 -16 10 -3 6 -9 8 -13 5z"/>
<path d="M31 228 c-12 -4 -21 -9 -21 -12 0 -5 70 11 77 18 7 7 -32 3 -56 -6z"/>
<path d="M50 194 c-17 -9 -20 -14 -9 -14 9 0 22 7 29 15 15 18 13 18 -20 -1z"/>
<path d="M1115 171 c-3 -6 -10 -9 -15 -6 -5 3 -11 1 -14 -4 -10 -16 22 -21 35
-5 6 8 9 17 6 20 -3 3 -8 0 -12 -5z"/>
</g>
</svg>
